# xmcd CD database file
#
# Track frame offsets:
#	150
#	14698
#	30574
#	47647
#	62277
#	74742
#	89938
#	106731
#	118818
#	130253
#	149559
#	166207
#	177261
#	194033
#	205549
#	233391
#	250577
#	267587
#	279351
#	290550
#	305361
#
# Disc length: 4292 seconds
#
# Revision: 0
# Processed by: cddbd v1.5.2PL0 Copyright (c) Steve Scherf et al.
# Submitted via: cdripper 1,0,33,916
#
DISCID=3a10c215
DTITLE=Karel Gott - 26 ...a to mám rád
DYEAR=2006
DGENRE=Komplet
TTITLE0=Text k téhle písni jsem psal já
TTITLE1=Drív já
TTITLE2=Plnoletá
TTITLE3=Chces dál v mém stínu stát
TTITLE4=Ó, jak dávno
TTITLE5=Dívka závodník
TTITLE6=Vecný laik
TTITLE7=Velká jízda
TTITLE8=Favorit
TTITLE9=Já slysel o ráji
TTITLE10=Nedokoncená
TTITLE11=a to mám rád
TTITLE12=Ted ruze k vám jdu krást
TTITLE13=Lod písní
TTITLE14=Smes z TV poradu K. Gott v Lucerne (1982)
TTITLE15=Mám te
TTITLE16=Plavá víla
TTITLE17=Apríl
TTITLE18=Zuzi
TTITLE19=Písne techto dnù
TTITLE20=Jak já se vracím rád
EXTD=YEAR: 2006
EXTT0=
EXTT1=
EXTT2=
EXTT3=
EXTT4=
EXTT5=
EXTT6=
EXTT7=
EXTT8=
EXTT9=
EXTT10=
EXTT11=
EXTT12=
EXTT13=
EXTT14=
EXTT15=
EXTT16=
EXTT17=
EXTT18=
EXTT19=
EXTT20=
PLAYORDER=
